<svg width="18" height="15" viewBox="0 0 18 15" fill="none" xmlns="http://www.w3.org/2000/svg">
<path d="M1.50033 0.333984C1.04009 0.333984 0.666992 0.70708 0.666992 1.16732C0.666992 1.62756 1.04009 2.00065 1.50033 2.00065H16.5003C16.9606 2.00065 17.3337 1.62756 17.3337 1.16732C17.3337 0.70708 16.9606 0.333984 16.5003 0.333984H1.50033Z" fill="#1287FD"/>
<path d="M0.666992 5.33398C0.666992 4.87375 1.04009 4.50065 1.50033 4.50065H16.5003C16.9606 4.50065 17.3337 4.87375 17.3337 5.33398C17.3337 5.79422 16.9606 6.16732 16.5003 6.16732H1.50033C1.04009 6.16732 0.666992 5.79422 0.666992 5.33398Z" fill="#1287FD"/>
<path d="M0.666992 9.50065C0.666992 9.04041 1.04009 8.66732 1.50033 8.66732H8.16699C8.62723 8.66732 9.00033 9.04041 9.00033 9.50065C9.00033 9.96089 8.62723 10.334 8.16699 10.334H1.50033C1.04009 10.334 0.666992 9.96089 0.666992 9.50065Z" fill="#1287FD"/>
<path fill-rule="evenodd" clip-rule="evenodd" d="M13.5681 12.9728C12.669 12.9794 11.9035 13.556 11.6187 14.3616C11.4653 14.7955 10.9892 15.023 10.5553 14.8696C10.1214 14.7162 9.89394 14.2401 10.0473 13.8062C10.3119 13.0576 10.8075 12.4177 11.4489 11.9727C11.0473 11.491 10.8058 10.8713 10.8058 10.1951C10.8058 8.66097 12.0494 7.41732 13.5835 7.41732C15.1177 7.41732 16.3613 8.66097 16.3613 10.1951C16.3613 10.8712 16.1198 11.4909 15.7183 11.9726C16.3598 12.4176 16.8555 13.0575 17.1201 13.8062C17.2735 14.2401 17.046 14.7162 16.6121 14.8696C16.1782 15.023 15.7021 14.7955 15.5487 14.3616C15.264 13.5559 14.4983 12.9794 13.5992 12.9728C13.594 12.9729 13.5887 12.9729 13.5835 12.9729C13.5784 12.9729 13.5732 12.9729 13.5681 12.9728ZM13.5968 11.3061C14.2043 11.299 14.6946 10.8043 14.6946 10.1951C14.6946 9.58145 14.1972 9.08399 13.5835 9.08399C12.9699 9.08399 12.4724 9.58145 12.4724 10.1951C12.4724 10.8044 12.9628 11.2991 13.5704 11.3061C13.5748 11.3061 13.5793 11.3061 13.5837 11.3061C13.5881 11.3061 13.5924 11.3061 13.5968 11.3061Z" fill="#1287FD"/>
</svg>
