<svg width="14" height="16" viewBox="0 0 14 16" fill="none" xmlns="http://www.w3.org/2000/svg">
<path d="M5.33301 3.00065C4.87277 3.00065 4.49967 3.37375 4.49967 3.83398C4.49967 4.29422 4.87277 4.66732 5.33301 4.66732H5.74967C6.20991 4.66732 6.58301 4.29422 6.58301 3.83398C6.58301 3.37375 6.20991 3.00065 5.74967 3.00065H5.33301Z" fill="#1287FD"/>
<path d="M8.24967 3.00065C7.78944 3.00065 7.41634 3.37375 7.41634 3.83398C7.41634 4.29422 7.78944 4.66732 8.24967 4.66732H8.66634C9.12658 4.66732 9.49967 4.29422 9.49967 3.83398C9.49967 3.37375 9.12658 3.00065 8.66634 3.00065H8.24967Z" fill="#1287FD"/>
<path d="M5.33301 5.91732C4.87277 5.91732 4.49967 6.29041 4.49967 6.75065C4.49967 7.21089 4.87277 7.58398 5.33301 7.58398H5.74967C6.20991 7.58398 6.58301 7.21089 6.58301 6.75065C6.58301 6.29041 6.20991 5.91732 5.74967 5.91732H5.33301Z" fill="#1287FD"/>
<path d="M8.24967 5.91732C7.78944 5.91732 7.41634 6.29041 7.41634 6.75065C7.41634 7.21089 7.78944 7.58398 8.24967 7.58398H8.66634C9.12658 7.58398 9.49967 7.21089 9.49967 6.75065C9.49967 6.29041 9.12658 5.91732 8.66634 5.91732H8.24967Z" fill="#1287FD"/>
<path d="M5.33301 8.83398C4.87277 8.83398 4.49967 9.20708 4.49967 9.66732C4.49967 10.1276 4.87277 10.5007 5.33301 10.5007H5.74967C6.20991 10.5007 6.58301 10.1276 6.58301 9.66732C6.58301 9.20708 6.20991 8.83398 5.74967 8.83398H5.33301Z" fill="#1287FD"/>
<path d="M8.24967 8.83398C7.78944 8.83398 7.41634 9.20708 7.41634 9.66732C7.41634 10.1276 7.78944 10.5007 8.24967 10.5007H8.66634C9.12658 10.5007 9.49967 10.1276 9.49967 9.66732C9.49967 9.20708 9.12658 8.83398 8.66634 8.83398H8.24967Z" fill="#1287FD"/>
<path fill-rule="evenodd" clip-rule="evenodd" d="M1.99967 0.0839844C1.53944 0.0839844 1.16634 0.45708 1.16634 0.917318V14.2507C0.706104 14.2507 0.333008 14.6237 0.333008 15.084C0.333008 15.5442 0.706104 15.9173 1.16634 15.9173H12.833C13.2932 15.9173 13.6663 15.5442 13.6663 15.084C13.6663 14.6237 13.2932 14.2507 12.833 14.2507V0.917318C12.833 0.45708 12.4599 0.0839844 11.9997 0.0839844H1.99967ZM8.24967 14.2507H11.1663V1.75065H2.83301V14.2507H5.74967V12.584C5.74967 12.1237 6.12277 11.7507 6.58301 11.7507H7.41634C7.87658 11.7507 8.24967 12.1237 8.24967 12.584V14.2507Z" fill="#1287FD"/>
</svg>
