<svg width="16" height="18" viewBox="0 0 16 18" fill="none" xmlns="http://www.w3.org/2000/svg">
<path fill-rule="evenodd" clip-rule="evenodd" d="M8.00027 0.25C4.82463 0.25 2.25027 2.82436 2.25027 6V9.06812C2.25027 9.22391 2.21057 9.37712 2.13491 9.5133L0.670008 12.1501C0.0219916 13.3166 0.865435 14.75 2.19978 14.75H13.8008C15.1351 14.75 15.9785 13.3166 15.3305 12.1501L13.8656 9.5133C13.79 9.37712 13.7503 9.22391 13.7503 9.06812V6C13.7503 2.82436 11.1759 0.25 8.00027 0.25ZM3.75027 6C3.75027 3.65279 5.65306 1.75 8.00027 1.75C10.3475 1.75 12.2503 3.65279 12.2503 6V9.06812C12.2503 9.47882 12.3549 9.88274 12.5544 10.2418L14.0193 12.8786C14.1119 13.0452 13.9914 13.25 13.8008 13.25H2.19978C2.00916 13.25 1.88867 13.0452 1.98124 12.8786L3.44615 10.2418C3.6456 9.88274 3.75027 9.47882 3.75027 9.06812V6Z" fill="#99A5B2"/>
<path d="M5.62934 16.0453C5.57909 15.8954 5.69798 15.75 5.85604 15.75H10.1443C10.3024 15.75 10.4213 15.8954 10.371 16.0453C10.0388 17.0361 9.10286 17.75 8.00018 17.75C6.8975 17.75 5.96156 17.0361 5.62934 16.0453Z" fill="#99A5B2"/>
</svg>
