<svg width="14" height="18" viewBox="0 0 14 18" fill="none" xmlns="http://www.w3.org/2000/svg">
<path d="M3.66639 3.99935C3.20615 3.99935 2.83305 4.37244 2.83305 4.83268C2.83305 5.29292 3.20615 5.66602 3.66639 5.66602H10.3331C10.7933 5.66602 11.1664 5.29292 11.1664 4.83268C11.1664 4.37244 10.7933 3.99935 10.3331 3.99935H3.66639Z" fill="#1287FD"/>
<path fill-rule="evenodd" clip-rule="evenodd" d="M0.333052 3.16602C0.333052 1.7853 1.45234 0.666016 2.83305 0.666016H11.1664C12.5471 0.666016 13.6664 1.7853 13.6664 3.16602V16.4914C13.6673 16.5839 13.653 16.6769 13.6227 16.7664C13.5891 16.8658 13.5372 16.9568 13.4711 17.0354C13.3262 17.2077 13.1128 17.3205 12.8728 17.3318C12.7709 17.3367 12.6677 17.323 12.5689 17.2899C12.4786 17.2598 12.3952 17.2146 12.3216 17.1573L10.6942 15.9174L9.38494 17.1144C9.06658 17.4055 8.5787 17.4055 8.26033 17.1144L6.99972 15.9618L5.73911 17.1144C5.42074 17.4055 4.93286 17.4055 4.61449 17.1144L3.30527 15.9174L1.6778 17.1573C1.60425 17.2146 1.52084 17.2598 1.43055 17.2899C1.3317 17.323 1.22857 17.3367 1.12665 17.3318C1.00847 17.3262 0.896738 17.296 0.796451 17.2463C0.696089 17.1967 0.604379 17.1261 0.528348 17.0354C0.462144 16.9567 0.410238 16.8656 0.376632 16.766C0.346445 16.6766 0.332101 16.5837 0.333052 16.4914V3.16602ZM11.9997 3.16602V14.8168L11.1506 14.1698C10.83 13.9256 10.3807 13.9457 10.0832 14.2177L8.82264 15.3702L7.56203 14.2177C7.24366 13.9266 6.75578 13.9266 6.43741 14.2177L5.1768 15.3702L3.91619 14.2177C3.61878 13.9457 3.1694 13.9256 2.84885 14.1698L1.99972 14.8168V3.16602C1.99972 2.70578 2.37281 2.33268 2.83305 2.33268H11.1664C11.6266 2.33268 11.9997 2.70578 11.9997 3.16602Z" fill="#1287FD"/>
</svg>
