<svg width="17" height="16" viewBox="0 0 17 16" fill="none" xmlns="http://www.w3.org/2000/svg">
<path fill-rule="evenodd" clip-rule="evenodd" d="M9.83382 9.66732C9.10944 9.66732 8.49097 10.1299 8.26177 10.7784C8.1084 11.2123 7.6323 11.4397 7.19837 11.2864C6.76444 11.133 6.537 10.6569 6.69037 10.2229C6.91122 9.59813 7.3132 9.05842 7.83353 8.66738C7.51965 8.24954 7.33366 7.73015 7.33366 7.16732C7.33366 5.78661 8.45295 4.66732 9.83366 4.66732C11.2144 4.66732 12.3337 5.78661 12.3337 7.16732C12.3337 7.73008 12.1477 8.24941 11.8339 8.66723C12.3543 9.05828 12.7564 9.59805 12.9773 10.2229C13.1306 10.6569 12.9032 11.133 12.4693 11.2864C12.0353 11.4397 11.5592 11.2123 11.4059 10.7784C11.1767 10.1299 10.5582 9.66732 9.83382 9.66732ZM10.667 7.16732C10.667 7.62756 10.2939 8.00065 9.83366 8.00065C9.37342 8.00065 9.00033 7.62756 9.00033 7.16732C9.00033 6.70708 9.37342 6.33398 9.83366 6.33398C10.2939 6.33398 10.667 6.70708 10.667 7.16732Z" fill="#1287FD"/>
<path fill-rule="evenodd" clip-rule="evenodd" d="M2.33366 11.334L2.33366 8.83399H1.50033C1.04009 8.83399 0.666992 8.46089 0.666992 8.00065C0.666992 7.54041 1.04009 7.16732 1.50033 7.16732H2.33366L2.33366 4.66732H1.50033C1.04009 4.66732 0.666992 4.29422 0.666992 3.83398C0.666992 3.37375 1.04009 3.00065 1.50033 3.00065H2.33366V2.58398C2.33366 1.20327 3.45295 0.0839844 4.83366 0.0839844H14.417C15.7977 0.0839844 16.917 1.20327 16.917 2.58398V13.4173C16.917 14.798 15.7977 15.9173 14.417 15.9173H4.83366C3.45295 15.9173 2.33366 14.798 2.33366 13.4173V13.0007H1.50033C1.04009 13.0007 0.666992 12.6276 0.666992 12.1673C0.666992 11.7071 1.04009 11.334 1.50033 11.334H2.33366ZM4.00033 3.00065L4.00032 2.58398C4.00032 2.12375 4.37342 1.75065 4.83366 1.75065L14.417 1.75065C14.8772 1.75065 15.2503 2.12375 15.2503 2.58398V13.4173C15.2503 13.8776 14.8772 14.2507 14.417 14.2507H4.83366C4.37342 14.2507 4.00033 13.8776 4.00033 13.4173V13.0007C4.46056 13.0007 4.83366 12.6276 4.83366 12.1673C4.83366 11.7071 4.46056 11.334 4.00033 11.334V8.83399C4.46056 8.83399 4.83366 8.46089 4.83366 8.00065C4.83366 7.54041 4.46056 7.16732 4.00033 7.16732V4.66732C4.46056 4.66732 4.83366 4.29422 4.83366 3.83398C4.83366 3.37375 4.46056 3.00065 4.00033 3.00065Z" fill="#1287FD"/>
</svg>
