<svg width="14" height="14" viewBox="0 0 14 14" fill="none" xmlns="http://www.w3.org/2000/svg">
<path d="M6.99967 11.0007C7.36786 11.0007 7.66634 10.7022 7.66634 10.334V6.33398C7.66634 5.96579 7.36786 5.66732 6.99967 5.66732C6.63148 5.66732 6.33301 5.96579 6.33301 6.33398V10.334C6.33301 10.7022 6.63148 11.0007 6.99967 11.0007Z" fill="#697482"/>
<path d="M6.99967 3.00065C7.45991 3.00065 7.83301 3.37375 7.83301 3.83398C7.83301 4.29422 7.45991 4.66732 6.99967 4.66732C6.53944 4.66732 6.16634 4.29422 6.16634 3.83398C6.16634 3.37375 6.53944 3.00065 6.99967 3.00065Z" fill="#697482"/>
<path fill-rule="evenodd" clip-rule="evenodd" d="M0.333008 7.00065C0.333008 3.31875 3.31778 0.333984 6.99967 0.333984C10.6816 0.333984 13.6663 3.31875 13.6663 7.00065C13.6663 10.6825 10.6816 13.6673 6.99967 13.6673C3.31778 13.6673 0.333008 10.6825 0.333008 7.00065ZM6.99967 1.66732C4.05416 1.66732 1.66634 4.05513 1.66634 7.00065C1.66634 9.94617 4.05416 12.334 6.99967 12.334C9.94519 12.334 12.333 9.94617 12.333 7.00065C12.333 4.05513 9.94519 1.66732 6.99967 1.66732Z" fill="#697482"/>
</svg>
