<svg width="16" height="18" viewBox="0 0 16 18" fill="none" xmlns="http://www.w3.org/2000/svg">
<path fill-rule="evenodd" clip-rule="evenodd" d="M8.00033 5.24935C6.61961 5.24935 5.50033 6.36864 5.50033 7.74935C5.50033 9.13006 6.61961 10.2493 8.00033 10.2493C9.38104 10.2493 10.5003 9.13006 10.5003 7.74935C10.5003 6.36864 9.38104 5.24935 8.00033 5.24935ZM7.16699 7.74935C7.16699 7.28911 7.54009 6.91602 8.00033 6.91602C8.46056 6.91602 8.83366 7.28911 8.83366 7.74935C8.83366 8.20959 8.46056 8.58268 8.00033 8.58268C7.54009 8.58268 7.16699 8.20959 7.16699 7.74935Z" fill="#1287FD"/>
<path fill-rule="evenodd" clip-rule="evenodd" d="M8.00033 0.666016C4.08831 0.666016 0.916992 3.83733 0.916992 7.74935C0.916992 10.3498 2.43663 12.7323 3.94441 14.4017C4.71068 15.25 5.50705 15.9514 6.17668 16.4467C6.51056 16.6936 6.82453 16.8979 7.09696 17.0448C7.23268 17.118 7.37032 17.1836 7.50347 17.2329C7.62122 17.2765 7.80093 17.3327 8.00033 17.3327C8.19972 17.3327 8.37943 17.2765 8.49718 17.2329C8.63034 17.1836 8.76797 17.118 8.90369 17.0448C9.17612 16.8979 9.49009 16.6936 9.82397 16.4467C10.4936 15.9514 11.29 15.25 12.0562 14.4017C13.564 12.7323 15.0837 10.3498 15.0837 7.74935C15.0837 3.83733 11.9123 0.666016 8.00033 0.666016ZM2.58366 7.74935C2.58366 4.75781 5.00878 2.33268 8.00033 2.33268C10.9919 2.33268 13.417 4.75781 13.417 7.74935C13.417 9.73224 12.2283 11.7247 10.8194 13.2845C10.1273 14.0507 9.4133 14.6775 8.83293 15.1067C8.54181 15.322 8.29589 15.479 8.11259 15.5779C8.06895 15.6014 8.03158 15.6202 8.00032 15.6349C7.96907 15.6202 7.9317 15.6014 7.88807 15.5779C7.70476 15.479 7.45884 15.322 7.16772 15.1067C6.58735 14.6775 5.8733 14.0507 5.18124 13.2845C3.77235 11.7247 2.58366 9.73224 2.58366 7.74935ZM7.90115 15.676C7.89699 15.677 7.89474 15.6778 7.89474 15.6778L7.89609 15.6775C7.89609 15.6775 7.89883 15.6767 7.90115 15.676ZM8.10298 15.6769L8.0995 15.676C8.10392 15.6774 8.10591 15.6778 8.10591 15.6778C8.10591 15.6778 8.10486 15.6774 8.10298 15.6769Z" fill="#1287FD"/>
</svg>
