<svg width="18" height="18" viewBox="0 0 18 18" fill="none" xmlns="http://www.w3.org/2000/svg">
<path d="M1 18C0.71667 18 0.479337 17.856 0.288003 17.568C0.0966702 17.28 0.000670115 16.924 3.44827e-06 16.5C-0.000663218 16.076 0.0953369 15.72 0.288003 15.432C0.48067 15.144 0.718003 15 1 15H17C17.2833 15 17.521 15.144 17.713 15.432C17.905 15.72 18.0007 16.076 18 16.5C17.9993 16.924 17.9033 17.2805 17.712 17.5695C17.5207 17.8585 17.2833 18.002 17 18H1ZM1 10.5C0.71667 10.5 0.479337 10.356 0.288003 10.068C0.0966702 9.77999 0.000670115 9.42399 3.44827e-06 8.99999C-0.000663218 8.57599 0.0953369 8.21999 0.288003 7.93199C0.48067 7.64399 0.718003 7.49999 1 7.49999H17C17.2833 7.49999 17.521 7.64399 17.713 7.93199C17.905 8.21999 18.0007 8.57599 18 8.99999C17.9993 9.42399 17.9033 9.78049 17.712 10.0695C17.5207 10.3585 17.2833 10.502 17 10.5H1ZM1 3C0.71667 3 0.479337 2.856 0.288003 2.568C0.0966702 2.28 0.000670115 1.924 3.44827e-06 1.5C-0.000663218 1.076 0.0953369 0.719999 0.288003 0.432C0.48067 0.144 0.718003 0 1 0H17C17.2833 0 17.521 0.144 17.713 0.432C17.905 0.719999 18.0007 1.076 18 1.5C17.9993 1.924 17.9033 2.2805 17.712 2.5695C17.5207 2.8585 17.2833 3.002 17 3H1Z" fill="#99A5B2"/>
</svg>
