<svg width="18" height="18" viewBox="0 0 18 18" fill="none" xmlns="http://www.w3.org/2000/svg">
<path d="M5.8501 6.63333C5.8501 5.04091 7.14101 3.75 8.73343 3.75H9.40004C10.9189 3.75 12.1501 4.98124 12.1501 6.50006C12.1501 7.36559 11.7426 8.18062 11.0502 8.69999L10.1361 9.38568C9.89333 9.56779 9.75045 9.85357 9.75045 10.1571V10.8H8.25045V10.1571C8.25045 9.38147 8.61559 8.65114 9.23602 8.18575L10.1501 7.50005C10.4649 7.26397 10.6501 6.89349 10.6501 6.50006C10.6501 5.80967 10.0904 5.25 9.40004 5.25H8.73343C7.96944 5.25 7.3501 5.86934 7.3501 6.63333V6.96913H5.8501V6.63333Z" fill="#99A5B2"/>
<path d="M9 14.3C9.55229 14.3 10 13.8523 10 13.3C10 12.7478 9.55229 12.3 9 12.3C8.44771 12.3 8 12.7478 8 13.3C8 13.8523 8.44771 14.3 9 14.3Z" fill="#99A5B2"/>
<path fill-rule="evenodd" clip-rule="evenodd" d="M0 9C0 4.02944 4.02944 0 9 0C13.9706 0 18 4.02944 18 9C18 13.9706 13.9706 18 9 18C4.02944 18 0 13.9706 0 9ZM9 1.5C4.85786 1.5 1.5 4.85786 1.5 9C1.5 13.1421 4.85786 16.5 9 16.5C13.1421 16.5 16.5 13.1421 16.5 9C16.5 4.85786 13.1421 1.5 9 1.5Z" fill="#99A5B2"/>
</svg>
