<svg width="18" height="18" viewBox="0 0 18 18" fill="none" xmlns="http://www.w3.org/2000/svg">
<path fill-rule="evenodd" clip-rule="evenodd" d="M8 0.5C3.85786 0.5 0.5 3.85786 0.5 8C0.5 12.1421 3.85786 15.5 8 15.5C9.80095 15.5 11.4536 14.8652 12.7465 13.8072L16.2197 17.2803C16.5126 17.5732 16.9874 17.5732 17.2803 17.2803C17.5732 16.9874 17.5732 16.5126 17.2803 16.2197L13.8072 12.7465C14.8652 11.4536 15.5 9.80095 15.5 8C15.5 3.85786 12.1421 0.5 8 0.5ZM2 8C2 4.68629 4.68629 2 8 2C11.3137 2 14 4.68629 14 8C14 11.3137 11.3137 14 8 14C4.68629 14 2 11.3137 2 8Z" fill="#99A5B2"/>
</svg>
