<svg width="18" height="18" viewBox="0 0 18 18" fill="none" xmlns="http://www.w3.org/2000/svg">
<path fill-rule="evenodd" clip-rule="evenodd" d="M9.00027 5.85C7.26057 5.85 5.85027 7.2603 5.85027 9C5.85027 10.7397 7.26057 12.15 9.00027 12.15C10.74 12.15 12.1503 10.7397 12.1503 9C12.1503 7.2603 10.74 5.85 9.00027 5.85ZM7.35027 9C7.35027 8.08873 8.089 7.35 9.00027 7.35C9.91154 7.35 10.6503 8.08873 10.6503 9C10.6503 9.91127 9.91154 10.65 9.00027 10.65C8.089 10.65 7.35027 9.91127 7.35027 9Z" fill="#99A5B2"/>
<path fill-rule="evenodd" clip-rule="evenodd" d="M8.42487 0C7.58684 0 6.86644 0.594113 6.70688 1.41682L6.53677 2.294C6.52157 2.37234 6.45298 2.47614 6.30614 2.53742C6.0892 2.62794 5.87784 2.72905 5.67269 2.84007C5.53305 2.91565 5.4093 2.90373 5.33878 2.8662L4.54762 2.4451C3.80785 2.05135 2.89277 2.23732 2.36538 2.8886L1.64128 3.78279C1.11388 4.43407 1.12223 5.36781 1.66118 6.00955L2.23779 6.69613C2.28909 6.75721 2.32659 6.87578 2.28186 7.02844C2.2111 7.26991 2.15301 7.51674 2.10834 7.76815C2.08057 7.92446 1.99423 8.01385 1.92099 8.04566L1.09798 8.4031C0.329317 8.73694 -0.094787 9.56886 0.0865963 10.387L0.335635 11.5104C0.517019 12.3285 1.25297 12.9033 2.09071 12.881L2.98833 12.8571C3.06809 12.855 3.1839 12.8994 3.2751 13.0288C3.42142 13.2363 3.57871 13.4356 3.74613 13.6256C3.85063 13.7442 3.86683 13.8671 3.84613 13.9443L3.61335 14.8115C3.39611 15.6209 3.78317 16.4707 4.53638 16.8381L5.57055 17.3424C6.32377 17.7098 7.2317 17.4916 7.73576 16.8221L8.27524 16.1056C8.32328 16.0418 8.43009 15.9789 8.58787 15.988C8.72437 15.996 8.86185 16 9.00017 16C9.11739 16 9.234 15.9971 9.34992 15.9914C9.50764 15.9836 9.61384 16.0474 9.66132 16.1117L10.1944 16.8327C10.6926 17.5066 11.5986 17.7327 12.355 17.3719L13.3935 16.8765C14.1499 16.5157 14.5443 15.6694 14.3342 14.8581L14.1094 13.9906C14.0894 13.9133 14.1067 13.7905 14.2123 13.6728C14.3819 13.4836 14.5415 13.2852 14.69 13.0783C14.7823 12.9497 14.8985 12.9063 14.9783 12.9091L15.873 12.9407C16.7105 12.9703 17.4514 12.402 17.64 11.5855L17.8988 10.4644C18.0873 9.64782 17.6705 8.81223 16.9047 8.4717L16.0874 8.10823C16.0145 8.07578 15.9289 7.98564 15.9026 7.82914C15.86 7.5764 15.8038 7.32819 15.7349 7.0853C15.6914 6.93222 15.73 6.81394 15.7818 6.7533L16.3624 6.0741C16.9069 5.43709 16.9234 4.50345 16.4017 3.8476L15.6855 2.94712C15.1638 2.29127 14.2504 2.09732 13.5072 2.4846L12.714 2.89793C12.6432 2.93484 12.5194 2.94567 12.3804 2.86893C12.1588 2.74651 11.9298 2.63573 11.6942 2.53742C11.5474 2.47615 11.4788 2.37235 11.4636 2.29401L11.2935 1.41681C11.1339 0.59411 10.4135 0 9.57549 0H8.42487ZM8.17945 1.7024C8.20224 1.58487 8.30516 1.5 8.42487 1.5H9.57549C9.69521 1.5 9.79812 1.58487 9.82092 1.7024L9.99104 2.5796C10.1164 3.2262 10.5819 3.69862 11.1166 3.92173C11.3014 3.99885 11.4811 4.08579 11.6552 4.18193C12.1629 4.4624 12.8229 4.53265 13.4072 4.22815L14.2004 3.81482C14.3065 3.7595 14.437 3.7872 14.5116 3.8809L15.2278 4.78138C15.3024 4.87507 15.3 5.00844 15.2222 5.09945L14.6416 5.77864C14.2137 6.27928 14.1337 6.93758 14.2919 7.49484C14.3459 7.6853 14.39 7.88002 14.4234 8.07842C14.5198 8.65057 14.8757 9.211 15.4779 9.47881L16.2952 9.84228C16.4046 9.89093 16.4642 10.0103 16.4372 10.1269L16.1784 11.2481C16.1515 11.3647 16.0456 11.4459 15.926 11.4417L15.0313 11.4101C14.374 11.3868 13.8093 11.733 13.4715 12.2035C13.3547 12.3662 13.2292 12.5223 13.0957 12.6711C12.7085 13.1028 12.4923 13.7297 12.6574 14.3668L12.8821 15.2343C12.9121 15.3502 12.8558 15.4711 12.7477 15.5226L11.7092 16.018C11.6011 16.0695 11.4717 16.0372 11.4005 15.941L10.8675 15.2199C10.4767 14.6914 9.85459 14.4647 9.27607 14.4932C9.18473 14.4977 9.09275 14.5 9.00017 14.5C8.89093 14.5 8.78251 14.4968 8.67499 14.4906C8.09668 14.4569 7.47235 14.6781 7.0769 15.2034L6.53742 15.9199C6.46541 16.0156 6.33571 16.0467 6.22811 15.9943L5.19394 15.4899C5.08634 15.4374 5.03104 15.316 5.06208 15.2004L5.29485 14.3331C5.46542 13.6976 5.25489 13.069 4.87165 12.634C4.73991 12.4845 4.61619 12.3278 4.50115 12.1646C4.1675 11.6912 3.60582 11.3401 2.94842 11.3576L2.0508 11.3815C1.93113 11.3847 1.82599 11.3026 1.80008 11.1857L1.55104 10.0624C1.52513 9.94548 1.58571 9.82664 1.69552 9.77895L2.51853 9.42151C3.12301 9.15897 3.48373 8.60172 3.58521 8.03054C3.62027 7.83321 3.66585 7.63959 3.72133 7.45025C3.88419 6.89448 3.80991 6.23569 3.38645 5.73146L2.80984 5.04488C2.73285 4.9532 2.73165 4.81981 2.807 4.72677L3.5311 3.83258C3.60644 3.73954 3.73717 3.71297 3.84285 3.76922L4.63401 4.19032C5.21576 4.49996 5.87644 4.43539 6.38664 4.15927C6.54773 4.07209 6.71362 3.99274 6.88381 3.92172C7.41845 3.69861 7.88393 3.22619 8.00933 2.57958L8.17945 1.7024Z" fill="#99A5B2"/>
</svg>
