<svg width="14" height="18" viewBox="0 0 14 18" fill="none" xmlns="http://www.w3.org/2000/svg">
<path d="M6.99967 8.99935C6.99967 9.45959 6.62658 9.83268 6.16634 9.83268H4.49967C4.03944 9.83268 3.66634 9.45959 3.66634 8.99935C3.66634 8.53911 4.03944 8.16602 4.49967 8.16602H6.16634C6.62658 8.16602 6.99967 8.53911 6.99967 8.99935Z" fill="#1287FD"/>
<path d="M9.49967 13.166C9.95991 13.166 10.333 12.7929 10.333 12.3327C10.333 11.8724 9.95991 11.4993 9.49967 11.4993H4.49967C4.03944 11.4993 3.66634 11.8724 3.66634 12.3327C3.66634 12.7929 4.03944 13.166 4.49967 13.166H9.49967Z" fill="#1287FD"/>
<path fill-rule="evenodd" clip-rule="evenodd" d="M3.35785 2.33268H2.83301C1.4523 2.33268 0.333008 3.45197 0.333008 4.83268V14.8327C0.333008 16.2134 1.4523 17.3327 2.83301 17.3327H11.1663C12.5471 17.3327 13.6663 16.2134 13.6663 14.8327V4.83268C13.6663 3.45197 12.5471 2.33268 11.1663 2.33268H10.6415C10.3017 1.37597 9.39013 0.666016 8.28333 0.666016H5.71601C4.60922 0.666016 3.69762 1.37597 3.35785 2.33268ZM4.9002 3.33598C4.79239 2.81849 5.18742 2.33268 5.71601 2.33268H8.28333C8.81193 2.33268 9.20696 2.81849 9.09915 3.33598C9.01864 3.72241 8.67806 3.99935 8.28333 3.99935H5.71602C5.32129 3.99935 4.9807 3.72241 4.9002 3.33598ZM10.6405 3.99935C10.2922 4.98664 9.35417 5.66602 8.28333 5.66602H5.71602C4.64518 5.66602 3.70718 4.98665 3.35883 3.99935H2.83301C2.37277 3.99935 1.99967 4.37244 1.99967 4.83268V14.8327C1.99967 15.2929 2.37277 15.666 2.83301 15.666H11.1663C11.6266 15.666 11.9997 15.2929 11.9997 14.8327V4.83268C11.9997 4.37244 11.6266 3.99935 11.1663 3.99935H10.6405Z" fill="#1287FD"/>
</svg>
